
<svg xmlns="http://www.w3.org/2000/svg" width="30" height="25" viewBox="0.0 0.0 30.0 25.0"><g id="others"><path id="12" d="M 11.383,23.600 C 11.141,23.461 11.110,23.344 11.249,23.092 C 11.498,22.640 11.475,21.701 11.215,21.701 C 11.098,21.701 10.776,21.911 10.501,22.168 C 10.225,22.424 10,22.554 10,22.456 C 10,22.358 10.301,22.002 10.670,21.665 C 11.038,21.327 11.429,20.905 11.539,20.725 C 11.731,20.413 11.779,20.420 12.700,20.895 C 13.870,21.498 14.578,22.122 14.721,22.675 C 14.808,23.012 14.944,23.090 15.441,23.090 C 16.130,23.090 16.999,23.416 16.866,23.625 C 16.819,23.700 16.560,23.649 16.292,23.511 C 16.023,23.374 15.603,23.301 15.357,23.349 C 14.763,23.466 14.443,23.240 14.210,22.541 C 14.049,22.055 13.932,21.962 13.482,21.962 C 12.996,21.962 12.920,22.042 12.665,22.830 C 12.369,23.741 12.006,23.960 11.383,23.600" stroke="#4C40E7" fill="#4C40E7" stroke-width="1" />
  <path id="12" d="M 7.619,23.322 C 7.432,23.140 7.485,22.216 7.737,21.273 C 7.887,20.710 8.016,20.489 8.110,20.636 C 8.189,20.760 8.154,21.205 8.032,21.627 C 7.911,22.048 7.860,22.627 7.919,22.915 C 8.020,23.406 7.889,23.584 7.619,23.322" stroke="#4C40E7" fill="#4C40E7" stroke-width="1" />
</g><g id="blue"><path id="13" d="M 0,17.690 C 0,16.809 0.004,16.803 0.491,16.920 C 0.761,16.984 1.094,17.144 1.232,17.274 C 1.445,17.477 1.406,17.589 0.964,18.044 C 0.215,18.816 0,18.737 0,17.690" stroke="#6350E9" fill="#6350E9" stroke-width="1" />
  <path id="3" d="M 0,19.031 C 0,18.781 0.101,18.576 0.224,18.576 C 0.347,18.576 0.677,18.340 0.957,18.052 C 1.542,17.449 1.414,17.115 0.523,16.924 C 0.523,16.924 0,16.813 0,16.813 C 0,16.813 0,13.803 0,13.803 C 0,13.803 0,10.794 0,10.794 C 0,10.794 1.384,10.674 1.384,10.674 C 2.145,10.608 3.120,10.406 3.549,10.225 C 4.864,9.671 4.821,9.597 4.821,12.429 C 4.821,14.840 4.802,14.978 4.420,15.911 C 4.933,16.265 4.933,16.611 4.420,16.762 C 4.199,16.827 3.857,17.018 3.661,17.185 C 3.464,17.353 3.183,17.527 3.036,17.571 C 2.879,17.618 2.768,17.859 2.768,18.152 C 2.768,18.558 2.668,18.680 2.232,18.802 C 1.938,18.884 1.455,19.030 1.161,19.126 C -0.018,19.510 0,19.512 0,19.031" stroke="#7867F4" fill="#7867F4" stroke-width="1" />
  <path id="10" d="M 0,22.405 C 0,22.405 0,21.025 0,21.025 C 0,21.025 0.550,21.211 0.550,21.211 C 0.853,21.314 1.137,21.492 1.183,21.608 C 1.240,21.753 1.772,21.814 2.903,21.802 C 2.903,21.802 4.541,21.786 4.541,21.786 C 4.541,21.786 4.954,21.190 4.954,21.190 C 5.607,20.248 5.646,19.837 5.133,19.303 C 4.712,18.864 4.286,18.198 4.286,17.980 C 4.286,17.684 4.781,17.970 5.089,18.444 C 5.286,18.746 5.719,19.147 6.051,19.336 C 6.613,19.653 6.672,19.657 6.875,19.387 C 6.995,19.228 7.305,19.097 7.564,19.097 C 7.973,19.097 8.036,19.169 8.036,19.636 C 8.036,19.933 7.911,20.644 7.758,21.218 C 7.605,21.791 7.505,22.505 7.535,22.805 C 7.588,23.336 7.620,23.355 8.728,23.499 C 9.911,23.653 10.265,23.510 10.050,22.965 C 9.941,22.690 10.836,21.701 11.194,21.701 C 11.475,21.701 11.511,22.616 11.249,23.092 C 11.110,23.344 11.141,23.460 11.383,23.597 C 11.601,23.720 9.922,23.776 5.848,23.780 C 5.848,23.780 0,23.785 0,23.785 C 0,23.785 0,22.405 0,22.405M 6.351,21.449 C 6.629,21.035 6.578,20.660 6.244,20.660 C 6.097,20.660 5.536,21.547 5.536,21.780 C 5.536,22.049 6.100,21.820 6.351,21.449" stroke="#5335CE" fill="#5335CE" stroke-width="1" />
  <path id="2" d="M 8.527,23.487 C 7.917,23.397 7.724,22.794 7.988,21.798 C 8.091,21.411 8.134,20.644 8.083,20.095 C 8.083,20.095 7.991,19.097 7.991,19.097 C 7.991,19.097 10.056,19.097 10.056,19.097 C 11.191,19.097 12.321,19.172 12.567,19.262 C 13.195,19.495 13.404,19.946 13.152,20.524 C 12.947,20.995 12.946,20.995 12.336,20.705 C 11.757,20.429 11.716,20.431 11.532,20.733 C 11.426,20.908 11.034,21.331 10.660,21.673 C 10.187,22.107 9.990,22.429 10.009,22.736 C 10.070,23.668 9.999,23.704 8.527,23.487" stroke="#3D4AFC" fill="#3D4AFC" stroke-width="1" />
  <path id="16" d="M 12.610,22.966 C 12.917,21.972 13.051,21.829 13.596,21.904 C 13.888,21.944 14.074,22.132 14.203,22.518 C 14.454,23.274 14.535,23.328 15.460,23.359 C 15.904,23.373 16.360,23.475 16.473,23.585 C 16.628,23.736 16.148,23.785 14.518,23.785 C 14.518,23.785 12.356,23.785 12.356,23.785 C 12.356,23.785 12.610,22.966 12.610,22.966" stroke="#292581" fill="#292581" stroke-width="1" />
  <path id="14" d="M 6.027,19.345 C 5.757,19.203 5.536,19.067 5.536,19.044 C 5.536,19.020 5.861,19.031 6.258,19.068 C 6.671,19.106 6.953,19.216 6.917,19.322 C 6.816,19.617 6.557,19.624 6.027,19.345" stroke="#391463" fill="#391463" stroke-width="1" />
  <path id="13" d="M 1.250,21.664 C 1.250,21.580 0.969,21.396 0.625,21.256 C 0.050,21.023 0,20.944 0.001,20.267 C 0.001,19.565 0.036,19.517 0.761,19.227 C 1.179,19.060 1.667,18.924 1.844,18.924 C 2.489,18.924 2.896,18.576 2.779,18.124 C 2.699,17.813 2.754,17.672 2.987,17.592 C 3.161,17.532 3.464,17.347 3.661,17.182 C 3.857,17.016 4.199,16.827 4.420,16.762 C 5.469,16.958 4.107,18.438 4.286,17.980 C 4.286,18.198 4.712,18.864 5.133,19.303 C 5.646,19.837 5.607,20.248 4.954,21.190 C 4.954,21.190 4.541,21.786 4.541,21.786 C 4.541,21.786 2.895,21.803 2.895,21.803 C 1.990,21.811 1.250,21.749 1.250,21.664" stroke="#6350E9" fill="#6350E9" stroke-width="1" />
  <path id="15" d="M 5.536,21.780 C 5.536,21.547 6.097,20.660 6.244,20.660 C 6.578,20.660 6.629,21.035 6.351,21.449 C 6.100,21.820 5.536,22.049 5.536,21.780" stroke="#251162" fill="#251162" stroke-width="1" />
  <path id="31" d="M 4.375,15.905 C 4.037,15.660 4.034,15.630 4.326,15.342 C 4.704,14.970 4.867,15.097 4.790,15.705 C 4.736,16.133 4.708,16.147 4.375,15.905" stroke="#8D79FC" fill="#8D79FC" stroke-width="1" />
  <path id="6" d="M 16.607,23.351 C 16.362,23.214 15.861,23.100 15.494,23.096 C 14.936,23.091 14.810,23.020 14.717,22.658 C 14.611,22.247 13.665,21.298 13.519,20.215 C 13.662,20.269 13.994,20.316 14.256,20.320 C 14.598,20.326 14.883,20.524 15.268,21.022 C 15.563,21.403 16.105,22.068 16.473,22.500 C 16.841,22.932 17.143,23.358 17.143,23.448 C 17.143,23.651 17.149,23.652 16.607,23.351" stroke="#1E27F7" fill="#1E27F7" stroke-width="1" />
  <path id="16" d="M 13.226,19.808 C 12.770,19.186 12.767,19.097 13.201,19.097 C 13.565,19.097 14.643,19.887 14.643,20.154 C 14.643,20.241 14.407,20.312 14.119,20.312 C 13.745,20.312 13.490,20.169 13.226,19.808" stroke="#292581" fill="#292581" stroke-width="1" />
  <path id="13" d="M 0,10.624 C 0,10.422 0.428,10.243 0,9.533 C 0,9.533 0,4.766 0,4.766 C 0,4.766 0,0 0,0 C 0,0 2.411,0 2.411,0 C 2.411,0 4.821,0 4.821,0 C 4.821,0 4.821,4.948 4.821,4.948 C 4.821,9.027 4.778,9.896 4.576,9.896 C 4.441,9.896 3.979,10.044 3.549,10.225 C 2.670,10.595 0,10.895 0,10.624" stroke="#6350E9" fill="#6350E9" stroke-width="1" />
  </g><g id="letter 4"><path id="13" d="M 26.548,22.454 C 26.482,22.390 26.429,22.195 26.429,22.020 C 26.429,21.837 26.296,21.697 26.116,21.690 C 25.944,21.684 25.281,21.653 24.643,21.622 C 24.004,21.590 23.080,21.626 22.589,21.701 C 21.723,21.834 21.677,21.819 21.051,21.205 C 20.696,20.857 20.150,20.388 19.836,20.161 C 19.333,19.798 19.273,19.666 19.321,19.033 C 19.374,18.328 19.366,18.317 18.830,18.366 C 18.363,18.409 18.201,18.303 17.709,17.636 C 17.392,17.208 17.023,16.554 16.889,16.184 C 16.466,15.018 15.499,13.515 14.973,13.203 C 14.694,13.039 14.511,12.860 14.567,12.806 C 14.622,12.752 14.501,12.352 14.298,11.919 C 14.095,11.485 13.929,11.052 13.929,10.957 C 13.664,10.459 12.804,10.076 13.543,10.243 C 14.215,10.243 14.575,10.532 15.161,11.541 C 15.689,12.451 16.215,12.850 16.025,12.196 C 15.976,12.029 15.907,11.780 15.870,11.643 C 15.763,11.240 16.932,10.782 18.089,10.772 C 18.659,10.768 19.360,10.645 19.648,10.501 C 20.016,10.316 20.789,10.230 22.247,10.210 C 24.652,10.178 24.821,10.091 24.821,8.896 C 24.821,8.311 24.927,7.986 25.212,7.691 C 25.719,7.166 25.430,6.777 24.755,7.077 C 24.350,7.256 24.314,7.230 24.209,6.690 C 24.052,5.874 22.709,4.691 21.924,4.677 C 21.602,4.672 19.210,4.673 16.607,4.680 C 14.004,4.687 11.787,4.633 11.679,4.560 C 11.571,4.487 11.377,4.233 11.248,3.995 C 11.119,3.757 10.639,3.093 10.182,2.519 C 9.454,1.606 8.929,0.612 8.929,0.148 C 8.929,0.066 9.812,0 10.893,0 C 12.520,0 12.857,0.045 12.857,0.260 C 12.857,0.577 13.239,0.601 13.545,0.304 C 13.789,0.066 16.071,-0.054 16.071,0.170 C 16.071,0.392 15.223,0.868 14.828,0.868 C 14.327,0.868 14.350,1.501 14.866,1.919 C 15.087,2.099 15.524,2.248 15.838,2.251 C 16.490,2.258 16.733,2.509 16.430,2.862 C 16.273,3.047 16.124,3.062 15.812,2.924 C 15.495,2.783 15.298,2.807 14.948,3.031 C 14.623,3.237 14.312,3.287 13.854,3.203 C 13.442,3.128 13.214,3.153 13.214,3.273 C 13.214,3.585 13.914,3.847 14.615,3.798 C 14.980,3.772 15.378,3.811 15.500,3.885 C 15.623,3.959 15.982,3.963 16.299,3.894 C 16.616,3.826 17.719,3.752 18.750,3.731 C 19.781,3.710 20.766,3.634 20.938,3.564 C 21.689,3.622 21.905,3.339 22.128,3.546 C 22.545,3.913 23.015,3.725 23.392,3.040 C 23.592,2.677 23.599,2.521 22.753,1.302 C 22.635,1.207 22.503,0.874 23.309,0.363 C 23.431,0.736 24.366,1.215 24.972,1.215 C 25.159,1.215 25.825,1.709 26.451,2.312 C 27.317,3.146 27.711,3.696 28.099,4.612 C 28.761,6.177 28.921,8.077 28.484,9.201 C 28.317,9.631 28.060,10.310 27.912,10.710 C 27.523,11.763 25.746,13.435 24.641,13.786 C 24.162,13.939 23.330,14.285 22.792,14.556 C 21.934,14.989 21.752,15.024 21.309,14.843 C 21.031,14.730 20.694,14.508 20.560,14.351 C 20.212,13.944 20,14.155 20,14.906 C 20,15.748 20.254,15.972 21.208,15.972 C 22.268,15.972 22.708,16.225 22.661,16.808 C 22.576,17.887 22.683,18.393 23.809,17.879 C 23.809,17.879 24.449,18.726 24.449,18.726 C 25.366,19.939 26.068,20.821 26.731,21.596 C 27.050,21.968 27.268,22.339 27.216,22.421 C 27.104,22.598 26.715,22.617 26.548,22.454M 23.616,13.269 C 23.984,13.207 24.286,13.105 24.286,13.043 C 24.286,12.980 23.723,12.674 23.036,12.363 C 22.348,12.051 21.786,11.726 21.786,11.639 C 21.786,11.552 22.067,11.382 22.411,11.261 C 22.754,11.140 23.036,10.987 23.036,10.921 C 23.036,10.541 21.137,10.465 20.630,10.826 C 20.230,11.110 20.376,11.624 20.894,11.756 C 21.148,11.820 21.250,11.992 21.250,12.358 C 21.250,12.640 21.337,13.029 21.444,13.223 C 21.647,13.590 21.696,13.591 23.616,13.269" stroke="#6350E9" fill="#6350E9" stroke-width="1" />
  <path id="27" d="M 12.857,0.260 C 12.857,0.095 13.028,0 13.325,0 C 13.721,0 13.759,0.040 13.571,0.260 C 13.449,0.404 13.239,0.521 13.103,0.521 C 12.968,0.521 12.857,0.404 12.857,0.260" stroke="#6D2D96" fill="#6D2D96" stroke-width="1" />
  <path id="3" d="M 15.478,3.879 C 15.403,3.806 15.029,3.769 14.647,3.795 C 13.918,3.847 13.214,3.590 13.214,3.273 C 13.214,3.153 13.442,3.128 13.854,3.203 C 14.312,3.287 14.623,3.237 14.948,3.031 C 15.298,2.807 15.495,2.783 15.812,2.924 C 16.124,3.062 16.273,3.047 16.430,2.862 C 16.733,2.509 16.490,2.258 15.838,2.251 C 15.154,2.244 14.464,1.732 14.464,1.231 C 14.464,0.966 14.577,0.868 14.885,0.868 C 15.116,0.868 15.524,0.671 15.791,0.430 C 16.277,-0.007 16.283,-0.008 19.344,0.039 C 19.344,0.039 22.411,0.087 22.411,0.087 C 22.411,0.087 22.466,0.608 22.466,0.608 C 22.497,0.894 22.618,1.208 22.734,1.306 C 22.952,1.488 23.308,1.992 23.507,2.399 C 23.651,2.694 23.235,3.449 22.805,3.673 C 21.763,3.361 21.452,3.522 20.938,3.564 C 20.766,3.636 19.821,3.710 18.839,3.730 C 17.857,3.750 16.730,3.821 16.334,3.888 C 15.938,3.956 15.552,3.951 15.478,3.879" stroke="#7867F4" fill="#7867F4" stroke-width="1" />
  </g><g id="letter 3"><path id="37" d="M 24.435,8.571 C 24.029,8.128 24.205,7.320 24.761,7.074 C 25.421,6.781 25.717,7.167 25.227,7.680 C 25.021,7.896 24.826,8.258 24.793,8.484 C 24.734,8.882 24.723,8.885 24.435,8.571" stroke="#8128BF" fill="#8128BF" stroke-width="1" />
  <path id="36" d="M 21.444,13.223 C 21.337,13.029 21.250,12.640 21.250,12.358 C 21.250,11.992 21.148,11.820 20.894,11.756 C 20.376,11.624 20.230,11.110 20.630,10.826 C 21.137,10.465 23.036,10.541 23.036,10.921 C 23.036,10.987 22.754,11.140 22.411,11.261 C 22.067,11.382 21.786,11.552 21.786,11.639 C 21.786,11.726 22.348,12.051 23.036,12.363 C 23.723,12.674 24.286,12.980 24.286,13.043 C 24.286,13.150 23.818,13.252 22.292,13.478 C 21.757,13.558 21.603,13.511 21.444,13.223" stroke="#7973FF" fill="#7973FF" stroke-width="1" />
  </g><g id="letter blue"><path id="22" d="M 23.036,10.069 C 22.754,9.892 22.884,9.840 23.492,9.885 C 23.693,9.899 24.014,9.745 24.065,8.540 C 24.188,8.185 24.821,8.824 24.821,9.303 C 24.821,10.078 23.769,10.530 23.036,10.069" stroke="#000F52" fill="#000F52" stroke-width="1" />
  </g><g id="letter 2"><path id="34" d="M 20.214,15.764 C 19.966,15.523 19.924,14.302 20.158,14.161 C 20.246,14.109 20.426,14.195 20.560,14.351 C 20.694,14.508 21.037,14.732 21.322,14.848 C 21.679,14.995 21.856,15.202 21.890,15.516 C 21.937,15.944 21.894,15.972 21.184,15.972 C 20.769,15.972 20.332,15.878 20.214,15.764" stroke="#6C37A4" fill="#6C37A4" stroke-width="1" />
  <path id="7" d="M 23.214,9.803 C 23.214,9.559 23.818,8.854 24.028,8.854 C 24.434,8.854 24.513,9.208 24.186,9.560 C 23.905,9.862 23.214,10.035 23.214,9.803" stroke="#000000" fill="#000000" stroke-width="1" />
  </g><g id="letter 1"><path id="6" d="M 22.153,23.220 C 21.549,22.595 21.526,22.519 21.792,22.037 C 21.928,21.791 22.153,21.707 22.195,22.157 C 22.126,22.359 23.398,23.090 23.817,23.090 C 24.196,23.090 24.696,22.437 24.597,22.071 C 24.525,21.804 24.616,21.719 25.039,21.659 C 25.887,21.538 26.429,21.700 26.429,22.074 C 26.429,22.478 26.881,22.679 27.204,22.419 C 27.383,22.274 27.530,22.350 27.826,22.740 C 28.573,23.721 28.411,23.785 25.173,23.785 C 25.173,23.785 22.697,23.785 22.697,23.785 C 22.697,23.785 22.153,23.220 22.153,23.220" stroke="#1E27F7" fill="#1E27F7" stroke-width="1" />
  <path id="36" d="M 23.011,18.539 C 22.714,18.310 22.481,17.281 22.633,16.870 C 22.694,16.705 22.866,16.776 23.234,17.119 C 23.796,17.643 23.873,17.999 23.525,18.462 C 23.337,18.711 23.251,18.724 23.011,18.539" stroke="#7973FF" fill="#7973FF" stroke-width="1" />
  <path id="21" d="M 22.857,22.732 C 22.107,22.325 22.051,21.982 22.723,21.907 C 22.993,21.877 23.214,21.779 23.214,21.690 C 23.214,21.454 24.176,21.491 24.429,21.736 C 24.738,22.037 24.692,22.472 24.316,22.803 C 23.903,23.167 23.636,23.153 22.857,22.732" stroke="#3C24CE" fill="#3C24CE" stroke-width="1" />
  <path id="20" d="M 16.146,15.616 C 15.761,15.134 15.145,14.387 14.777,13.956 C 13.802,12.817 13.899,12.507 15,13.238 C 15.564,13.613 17.147,16.200 16.936,16.404 C 16.886,16.453 16.530,16.099 16.146,15.616" stroke="#351B7B" fill="#351B7B" stroke-width="1" />
  <path id="32" d="M 13.929,12.587 C 13.775,12.407 13.768,12.326 13.907,12.326 C 14.017,12.326 14.107,12.194 14.107,12.031 C 14.107,11.659 14.380,11.924 14.546,12.457 C 14.689,12.918 14.284,13.003 13.929,12.587" stroke="#6A2ABE" fill="#6A2ABE" stroke-width="1" />
  <path id="37" d="M 18.691,18.954 C 18.691,18.954 18.192,18.448 18.192,18.448 C 18.192,18.448 18.694,18.352 18.694,18.352 C 19.342,18.228 19.544,18.430 19.348,19.004 C 19.348,19.004 19.191,19.461 19.191,19.461 C 19.191,19.461 18.691,18.954 18.691,18.954" stroke="#8128BF" fill="#8128BF" stroke-width="1" />
  <path id="17" d="M 13.383,11.961 C 13.237,11.696 13.235,11.542 13.376,11.405 C 13.829,10.534 12.328,10.413 13.563,10.549 C 14.066,10.945 14.304,12.326 13.869,12.326 C 13.712,12.326 13.493,12.162 13.383,11.961" stroke="#080716" fill="#080716" stroke-width="1" />
  <path id="37" d="M 21.255,22.148 C 21.145,21.868 20.858,21.447 20.617,21.212 C 20.376,20.978 20.179,20.716 20.179,20.630 C 20.179,20.348 20.828,20.804 21.321,21.432 C 21.689,21.902 21.762,22.120 21.629,22.352 C 21.475,22.620 21.430,22.596 21.255,22.148" stroke="#8128BF" fill="#8128BF" stroke-width="1" />
  <path id="7" d="M 12.715,11.107 C 12.322,10.751 12.182,10.243 12.478,10.243 C 12.564,10.243 12.735,10.360 12.857,10.503 C 12.979,10.647 13.196,10.764 13.339,10.764 C 13.628,10.764 13.591,11.307 13.296,11.403 C 13.193,11.436 12.932,11.303 12.715,11.107" stroke="#000000" fill="#000000" stroke-width="1" />
  <path id="32" d="M 15.495,12.109 C 15.351,11.894 15.145,11.555 15.036,11.354 C 14.856,11.023 14.878,10.996 15.275,11.070 C 15.516,11.115 15.912,11.025 16.154,10.871 C 16.447,10.684 16.941,10.598 17.628,10.615 C 17.628,10.615 18.661,10.639 18.661,10.639 C 18.661,10.639 17.768,10.751 17.768,10.751 C 16.671,10.889 15.780,11.308 15.870,11.644 C 15.907,11.780 15.976,12.029 16.025,12.196 C 16.151,12.629 15.804,12.572 15.495,12.109" stroke="#6A2ABE" fill="#6A2ABE" stroke-width="1" />
  <path id="14" d="M 14.588,10.672 C 14.588,10.672 14.087,10.243 14.087,10.243 C 14.087,10.243 16.865,10.243 16.865,10.243 C 18.429,10.243 19.643,10.313 19.643,10.402 C 19.643,10.670 19.250,10.723 17.922,10.631 C 16.923,10.562 16.557,10.605 16.230,10.827 C 15.654,11.220 15.176,11.174 14.588,10.672" stroke="#391463" fill="#391463" stroke-width="1" />
  </g></svg>