<svg width="30" height="25" viewBox="0 0 30 25" fill="none" xmlns="http://www.w3.org/2000/svg">
<path d="M0.375066 9.31487C0.381273 14.1376 0.393687 19.6307 0.4061 21.5176L0.418514 24.95L9.44333 24.9438C14.4088 24.9438 18.4868 24.9314 18.4992 24.919C18.5178 24.8942 16.7116 22.4673 14.9985 20.208L14.4461 19.488L10.0702 19.4693L5.69437 19.4507L5.67575 9.99762L5.66333 0.550742H3.00679H0.356445L0.375066 9.31487Z" fill="#6D42E9"/>
<path d="M8.66146 0.62527C8.68008 0.668718 9.2387 1.51285 9.91525 2.50596C10.5856 3.49285 11.3118 4.56044 11.5166 4.87699L11.9015 5.44802L17.3325 5.46664L22.7635 5.48526L23.1235 5.65285C23.9056 6.01905 24.4642 6.78871 24.6007 7.69491C24.787 8.88043 24.1228 10.0349 22.9807 10.5004L22.6394 10.637L17.4132 10.6556C14.5332 10.6618 12.1808 10.6866 12.1808 10.7053C12.1808 10.7487 12.4352 11.1211 13.4842 12.5921C15.9918 16.099 18.729 19.6059 22.5276 24.168L23.198 24.9749L24.067 24.9935C25.4511 25.0245 29.8083 24.9376 29.8083 24.8756C29.8083 24.8445 29.5476 24.5032 29.2373 24.1183C28.6849 23.448 23.918 17.4646 22.9932 16.2852L22.5525 15.7266L23.3718 15.5901C26.5869 15.0625 28.8525 12.9584 29.6221 9.79905C29.8207 9.00457 29.8394 7.31629 29.6594 6.5094C29.1504 4.18802 27.8035 2.40044 25.8049 1.40113C25.1656 1.07837 24.6938 0.916993 23.8497 0.72458C23.2663 0.588028 23.198 0.588028 15.9421 0.569408C10.0022 0.550787 8.63664 0.563201 8.66146 0.62527Z" fill="#6C40EA"/>
</svg>
